<?xml version="1.0" encoding="UTF-8" standalone="no"?>
<svg
   xmlns:dc="http://purl.org/dc/elements/1.1/"
   xmlns:cc="http://creativecommons.org/ns#"
   xmlns:rdf="http://www.w3.org/1999/02/22-rdf-syntax-ns#"
   xmlns:svg="http://www.w3.org/2000/svg"
   xmlns="http://www.w3.org/2000/svg"
   id="svg8"
   version="1.1"
   viewBox="0 0 10.367311 14.145761"
   height="14.145761mm"
   width="10.367311mm">
  <defs
     id="defs2">
    <rect
       id="rect1587"
       height="22.123236"
       width="60.85059"
       y="98.825371"
       x="-41.855091" />
    <rect
       id="rect876"
       height="25.5"
       width="35.507042"
       y="145.5"
       x="52.827541" />
    <rect
       id="rect902"
       height="18"
       width="27.712812"
       y="162"
       x="76.210236" />
    <rect
       x="52.827541"
       y="145.5"
       width="35.507042"
       height="25.5"
       id="rect876-2" />
    <rect
       x="52.827541"
       y="145.5"
       width="35.507042"
       height="25.5"
       id="rect876-5" />
    <rect
       x="52.827541"
       y="145.5"
       width="35.507042"
       height="25.5"
       id="rect972" />
    <rect
       id="rect876-2-1"
       height="25.5"
       width="35.507042"
       y="145.5"
       x="52.827541" />
    <rect
       id="rect975"
       height="25.5"
       width="35.507042"
       y="145.5"
       x="52.827541" />
    <rect
       x="52.827541"
       y="145.5"
       width="35.507042"
       height="25.5"
       id="rect876-2-1-3" />
    <rect
       x="52.827541"
       y="145.5"
       width="35.507042"
       height="25.5"
       id="rect1041" />
    <rect
       id="rect876-5-5"
       height="25.5"
       width="35.507042"
       y="145.5"
       x="52.827541" />
    <rect
       id="rect1044"
       height="25.5"
       width="35.507042"
       y="145.5"
       x="52.827541" />
    <rect
       x="52.827541"
       y="145.5"
       width="35.507042"
       height="25.5"
       id="rect876-3" />
    <rect
       x="52.827541"
       y="145.5"
       width="35.507042"
       height="25.5"
       id="rect1110" />
    <rect
       id="rect876-2-3"
       height="25.5"
       width="35.507042"
       y="145.5"
       x="52.827541" />
    <rect
       id="rect1113"
       height="25.5"
       width="35.507042"
       y="145.5"
       x="52.827541" />
    <rect
       id="rect876-5-2"
       height="25.5"
       width="35.507042"
       y="145.5"
       x="52.827541" />
    <rect
       id="rect1116"
       height="25.5"
       width="35.507042"
       y="145.5"
       x="52.827541" />
    <rect
       x="52.827541"
       y="145.5"
       width="35.507042"
       height="25.5"
       id="rect876-2-1-8" />
    <rect
       x="52.827541"
       y="145.5"
       width="35.507042"
       height="25.5"
       id="rect1119" />
    <rect
       x="52.827541"
       y="145.5"
       width="35.507042"
       height="25.5"
       id="rect876-5-5-6" />
    <rect
       x="52.827541"
       y="145.5"
       width="35.507042"
       height="25.5"
       id="rect1122" />
    <rect
       id="rect876-2-1-3-3"
       height="25.5"
       width="35.507042"
       y="145.5"
       x="52.827541" />
    <rect
       id="rect1125"
       height="25.5"
       width="35.507042"
       y="145.5"
       x="52.827541" />
    <rect
       x="52.827541"
       y="145.5"
       width="35.507042"
       height="25.5"
       id="rect876-2-1-3-3-6" />
    <rect
       x="52.827541"
       y="145.5"
       width="35.507042"
       height="25.5"
       id="rect1293" />
    <rect
       id="rect876-5-5-6-2"
       height="25.5"
       width="35.507042"
       y="145.5"
       x="52.827541" />
    <rect
       id="rect1296"
       height="25.5"
       width="35.507042"
       y="145.5"
       x="52.827541" />
    <rect
       id="rect876-2-1-8-8"
       height="25.5"
       width="35.507042"
       y="145.5"
       x="52.827541" />
    <rect
       id="rect1299"
       height="25.5"
       width="35.507042"
       y="145.5"
       x="52.827541" />
    <rect
       x="52.827541"
       y="145.5"
       width="35.507042"
       height="25.5"
       id="rect876-5-2-8" />
    <rect
       x="52.827541"
       y="145.5"
       width="35.507042"
       height="25.5"
       id="rect1302" />
    <rect
       x="52.827541"
       y="145.5"
       width="35.507042"
       height="25.5"
       id="rect876-2-3-1" />
    <rect
       x="52.827541"
       y="145.5"
       width="35.507042"
       height="25.5"
       id="rect1305" />
    <rect
       id="rect876-3-2"
       height="25.5"
       width="35.507042"
       y="145.5"
       x="52.827541" />
    <rect
       id="rect1308"
       height="25.5"
       width="35.507042"
       y="145.5"
       x="52.827541" />
    <rect
       x="52.827541"
       y="145.5"
       width="35.507042"
       height="25.5"
       id="rect876-2-1-3-3-7" />
    <rect
       x="52.827541"
       y="145.5"
       width="35.507042"
       height="25.5"
       id="rect1293-9" />
    <rect
       id="rect876-5-5-6-1"
       height="25.5"
       width="35.507042"
       y="145.5"
       x="52.827541" />
    <rect
       id="rect1296-6"
       height="25.5"
       width="35.507042"
       y="145.5"
       x="52.827541" />
    <rect
       id="rect876-2-1-8-1"
       height="25.5"
       width="35.507042"
       y="145.5"
       x="52.827541" />
    <rect
       id="rect1299-9"
       height="25.5"
       width="35.507042"
       y="145.5"
       x="52.827541" />
    <rect
       x="52.827541"
       y="145.5"
       width="35.507042"
       height="25.5"
       id="rect876-5-2-1" />
    <rect
       x="52.827541"
       y="145.5"
       width="35.507042"
       height="25.5"
       id="rect1302-7" />
    <rect
       x="52.827541"
       y="145.5"
       width="35.507042"
       height="25.5"
       id="rect876-2-3-8" />
    <rect
       x="52.827541"
       y="145.5"
       width="35.507042"
       height="25.5"
       id="rect1305-0" />
    <rect
       id="rect876-3-4"
       height="25.5"
       width="35.507042"
       y="145.5"
       x="52.827541" />
    <rect
       id="rect1308-0"
       height="25.5"
       width="35.507042"
       y="145.5"
       x="52.827541" />
    <rect
       x="52.827541"
       y="145.5"
       width="35.507042"
       height="25.5"
       id="rect876-5-5-6-1-4" />
    <rect
       x="52.827541"
       y="145.5"
       width="35.507042"
       height="25.5"
       id="rect1600" />
    <rect
       id="rect876-2-1-3-3-7-1"
       height="25.5"
       width="35.507042"
       y="145.5"
       x="52.827541" />
    <rect
       id="rect1603"
       height="25.5"
       width="35.507042"
       y="145.5"
       x="52.827541" />
    <rect
       x="-41.855091"
       y="98.825371"
       width="60.85059"
       height="22.123236"
       id="rect1587-4" />
    <rect
       x="-41.855091"
       y="98.825371"
       width="60.85059"
       height="22.123236"
       id="rect1606" />
    <rect
       x="52.827541"
       y="145.5"
       width="35.507042"
       height="25.5"
       id="rect876-5-5-6-1-8" />
    <rect
       x="52.827541"
       y="145.5"
       width="35.507042"
       height="25.5"
       id="rect1686" />
    <rect
       id="rect876-2-1-3-3-7-4"
       height="25.5"
       width="35.507042"
       y="145.5"
       x="52.827541" />
    <rect
       id="rect1689"
       height="25.5"
       width="35.507042"
       y="145.5"
       x="52.827541" />
    <rect
       x="-41.855091"
       y="98.825371"
       width="60.85059"
       height="22.123236"
       id="rect1587-1" />
    <rect
       x="-41.855091"
       y="98.825371"
       width="60.85059"
       height="22.123236"
       id="rect1692" />
    <rect
       id="rect876-5-5-6-1-4-6"
       height="25.5"
       width="35.507042"
       y="145.5"
       x="52.827541" />
    <rect
       id="rect1695"
       height="25.5"
       width="35.507042"
       y="145.5"
       x="52.827541" />
    <rect
       x="52.827541"
       y="145.5"
       width="35.507042"
       height="25.5"
       id="rect876-2-1-3-3-7-1-6" />
    <rect
       x="52.827541"
       y="145.5"
       width="35.507042"
       height="25.5"
       id="rect1698" />
    <rect
       id="rect1587-4-5"
       height="22.123236"
       width="60.85059"
       y="98.825371"
       x="-41.855091" />
    <rect
       id="rect1701"
       height="22.123236"
       width="60.85059"
       y="98.825371"
       x="-41.855091" />
    <rect
       x="52.827541"
       y="145.5"
       width="35.507042"
       height="25.5"
       id="rect876-5-5-6-1-9" />
    <rect
       x="52.827541"
       y="145.5"
       width="35.507042"
       height="25.5"
       id="rect1847" />
    <rect
       id="rect876-2-1-3-3-7-10"
       height="25.5"
       width="35.507042"
       y="145.5"
       x="52.827541" />
    <rect
       id="rect1850"
       height="25.5"
       width="35.507042"
       y="145.5"
       x="52.827541" />
    <rect
       id="rect1587-4-59"
       height="22.123236"
       width="60.85059"
       y="98.825371"
       x="-41.855091" />
    <rect
       id="rect1916"
       height="22.123236"
       width="60.85059"
       y="98.825371"
       x="-41.855091" />
    <rect
       id="rect1587-4-9"
       height="22.123236"
       width="60.85059"
       y="98.825371"
       x="-41.855091" />
    <rect
       id="rect1978"
       height="22.123236"
       width="60.85059"
       y="98.825371"
       x="-41.855091" />
  </defs>
  <metadata
     id="metadata5">
    <rdf:RDF>
      <cc:Work
         rdf:about="">
        <dc:format>image/svg+xml</dc:format>
        <dc:type
           rdf:resource="http://purl.org/dc/dcmitype/StillImage" />
        <dc:title></dc:title>
      </cc:Work>
    </rdf:RDF>
  </metadata>
  <g
     transform="translate(398.57393,71.383234)"
     id="layer1">
    <g
       id="layer1-0"
       transform="translate(-280.59223,-126)">
      <path
         style="fill:#ffffff;fill-opacity:1;stroke:#ffffff;stroke-width:1.84511;stroke-linecap:round;stroke-linejoin:round;stroke-miterlimit:4;stroke-dasharray:none;stroke-opacity:1"
         d="m -117.05914,65.379843 4.2611,2.460144 4.2611,-2.460144 v -4.9203 l -2.13055,-1.230067 v -1.230078 l -4.2611,-2.460144 v 1.230067 l -2.13055,3.690222 z"
         id="path961-9-2-4-5-3" />
      <path
         style="fill:#ffffff;fill-opacity:1;stroke:none;stroke-width:0.325456px;stroke-linecap:butt;stroke-linejoin:miter;stroke-opacity:1"
         d="m -117.05914,65.379843 4.2611,2.460144 4.2611,-2.460144 v -4.9203 l -2.13055,-1.230067 v -1.230078 l -4.2611,-2.460144 v 1.230067 l -2.13055,3.690222 z"
         id="path921-4-0-0-8-2" />
      <path
         d="m -114.92049,55.17076 a 0.36905963,0.36905963 0 0 0 -0.0221,5.26e-4 0.36905963,0.36905963 0 0 0 -0.35388,0.368102 v 1.126955 l -2.08225,3.607834 v 5.26e-4 a 0.36905904,0.36905904 0 0 0 -0.049,0.184842 v 4.920157 a 0.36905904,0.36905904 0 0 0 0.18483,0.319653 c 0,0 2.78802,1.610608 4.2598,2.460341 a 0.36905904,0.36905904 0 0 0 0.3702,0 l 4.25926,-2.460341 a 0.36905904,0.36905904 0 0 0 0.18537,-0.319653 v -4.920157 a 0.36905904,0.36905904 0 0 0 -0.18432,-0.318601 l -0.0105,-0.0063 a 0.36905904,0.36905904 0 0 0 -0.003,-0.0011 l -1.93319,-1.119058 v -1.01531 a 0.36905963,0.36905963 0 0 0 -0.18327,-0.320182 l -4.26136,-2.460341 a 0.36905963,0.36905963 0 0 0 -0.17696,-0.04792 z m 0.36022,1.007411 3.52305,2.034313 v 0.376002 l -3.52305,-2.033784 z m -0.23277,1.094832 3.62047,2.092239 -1.76099,3.0512 -3.62154,-2.09171 z m 4.25927,2.461921 1.25807,0.725147 -2.51459,1.452402 z m -6.15614,1.36393 3.52304,2.034312 v 4.06862 c -1.4185,-0.819238 -3.32969,-1.924251 -3.52304,-2.03589 z m 7.7839,0 v 4.067042 l -3.52254,2.034836 v -4.068094 z"
         style="color:#000000;font-style:normal;font-variant:normal;font-weight:normal;font-stretch:normal;font-size:medium;line-height:normal;font-family:sans-serif;font-variant-ligatures:normal;font-variant-position:normal;font-variant-caps:normal;font-variant-numeric:normal;font-variant-alternates:normal;font-variant-east-asian:normal;font-feature-settings:normal;font-variation-settings:normal;text-indent:0;text-align:start;text-decoration:none;text-decoration-line:none;text-decoration-style:solid;text-decoration-color:#000000;letter-spacing:normal;word-spacing:normal;text-transform:none;writing-mode:lr-tb;direction:ltr;text-orientation:mixed;dominant-baseline:auto;baseline-shift:baseline;text-anchor:start;white-space:normal;shape-padding:0;shape-margin:0;inline-size:0;clip-rule:nonzero;display:inline;overflow:visible;visibility:visible;opacity:1;isolation:auto;mix-blend-mode:normal;color-interpolation:sRGB;color-interpolation-filters:linearRGB;solid-color:#000000;solid-opacity:1;vector-effect:none;fill:#333333;fill-opacity:1;fill-rule:nonzero;stroke:none;stroke-width:0.738046;stroke-linecap:round;stroke-linejoin:round;stroke-miterlimit:4;stroke-dasharray:none;stroke-dashoffset:0;stroke-opacity:1;paint-order:normal;color-rendering:auto;image-rendering:auto;shape-rendering:auto;text-rendering:auto;enable-background:accumulate;stop-color:#000000;stop-opacity:1"
         id="path919-9-4-2-2-7" />
      <g
         style="font-style:normal;font-weight:normal;font-size:10.5833px;line-height:1.25;font-family:sans-serif;letter-spacing:0px;word-spacing:0px;white-space:pre;shape-inside:url(#rect876-5-5-6-1-4);fill:#333333;fill-opacity:1;stroke:none"
         id="text874-2-3-9-3-1"
         transform="matrix(0.39947305,0.23063586,0,0.39947305,-137.84285,-9.6620897)"
         aria-label="M">
        <path
           id="path1936"
           style="font-style:normal;font-variant:normal;font-weight:normal;font-stretch:normal;font-family:mini-wakuwaku;-inkscape-font-specification:mini-wakuwaku;fill:#333333;fill-opacity:1"
           d="m 61.040766,150.34715 v -0.0317 c 0,-0.5715 -0.01058,-1.016 -0.01058,-1.15358 0,-0.52916 -0.03175,-0.93133 -0.444498,-1.26999 -0.148167,-0.11642 -0.328083,-0.17992 -0.529165,-0.17992 -0.264583,0 -0.560915,0.10583 -0.783165,0.28575 -0.296332,0.23283 -1.534578,2.24366 -1.915577,2.86807 -0.253999,-0.39158 -1.111246,-1.69333 -1.587495,-2.25424 -0.380998,-0.4445 -0.719664,-0.80433 -1.142996,-0.80433 -0.07408,0 -0.15875,0.0106 -0.243416,0.0317 -0.465665,0.15875 -0.687914,0.55033 -0.687914,1.21708 0,0.127 -0.01058,0.45508 -0.01058,0.92075 v 0.0423 c -0.02117,1.47108 -0.0635,4.22274 -0.01058,4.72015 0.08467,0.74083 0.560915,0.84666 0.836081,0.84666 0.02117,0 0.04233,0 0.05292,0 0.476249,-0.0212 0.846664,-0.40216 0.867831,-0.87841 0.01058,-0.30692 0.01058,-2.70932 0.01058,-3.49249 0.285749,0.35983 0.836081,1.03717 1.18533,1.41816 0.243415,0.254 0.507998,0.39159 0.783164,0.39159 0.264582,0 0.507998,-0.11642 0.719664,-0.33867 0.169333,-0.16933 0.793748,-1.11125 1.12183,-1.59808 l 0.02117,0.79375 c 0.04233,1.06891 0.09525,2.58232 0.105833,2.87866 0.02117,0.53975 0.486832,0.81491 0.899581,0.79374 0.433915,-0.0212 0.751414,-0.33866 0.783164,-0.79374 0.02117,-0.30692 0,-2.87866 -0.02117,-4.41324 z" />
      </g>
      <g
         style="font-style:normal;font-weight:normal;font-size:10.5833px;line-height:1.25;font-family:sans-serif;letter-spacing:0px;word-spacing:0px;white-space:pre;shape-inside:url(#rect876-2-1-3-3-7-1);opacity:1;fill:#333333;fill-opacity:1;stroke:#333333;stroke-width:0.153962;stroke-miterlimit:4;stroke-dasharray:none;stroke-opacity:1"
         id="text874-4-7-7-3-7-7"
         transform="matrix(0.39947305,-0.23063587,0,0.39947305,-133.05334,16.516619)"
         aria-label="S">
        <path
           id="path1939"
           style="font-style:normal;font-variant:normal;font-weight:normal;font-stretch:normal;font-family:mini-wakuwaku;-inkscape-font-specification:mini-wakuwaku;fill:#333333;fill-opacity:1;stroke:#333333;stroke-width:0.153962;stroke-miterlimit:4;stroke-dasharray:none;stroke-opacity:1"
           d="m 58.64894,148.89724 c -0.116416,-0.43392 -0.666748,-1.03716 -1.809744,-1.34408 -0.22225,-0.0529 -0.465666,-0.0847 -0.719665,-0.0847 -0.846664,0 -1.883827,0.37042 -2.264826,1.41817 -0.253999,0.69849 -0.296332,1.71449 0.359832,2.4659 0.359832,0.40217 0.899581,0.73025 1.375829,1.016 0.338666,0.20108 0.624415,0.37042 0.772581,0.52917 0.127,0.13758 0.190499,0.30691 0.15875,0.47624 -0.02117,0.16934 -0.127,0.32809 -0.275166,0.41275 -0.08467,0.0423 -0.232833,0.0741 -0.412749,0.0741 -0.359832,0 -0.783164,-0.0952 -1.09008,-0.22225 -0.169333,-0.0847 -0.338665,-0.11642 -0.497415,-0.11642 -0.285749,0 -0.539748,0.13758 -0.740831,0.40217 -0.243416,0.33866 -0.179916,0.79374 0.15875,1.16416 0.201082,0.22225 0.984247,0.52916 1.439328,0.5715 0.1905,0.0106 0.370416,0.0212 0.550332,0.0212 0.772581,0 1.396996,-0.15875 1.841494,-0.46566 0.814914,-0.5715 1.111247,-1.7145 0.666748,-2.61408 -0.317499,-0.63499 -1.05833,-1.24883 -1.661578,-1.56632 -0.486832,-0.254 -0.984247,-0.5715 -1.02658,-0.99483 -0.04233,-0.33867 0.190499,-0.64559 0.518582,-0.71967 0.05292,-0.0106 0.116416,-0.0212 0.179916,-0.0212 0.338665,0 0.793747,0.127 1.02658,0.27517 0.243416,0.14817 0.444498,0.22225 0.656164,0.22225 0.105833,0 0.201083,-0.0212 0.317499,-0.0423 0.169333,-0.0423 0.306916,-0.14817 0.402166,-0.30692 0.105833,-0.16933 0.126999,-0.35983 0.07408,-0.55033 z" />
      </g>
      <g
         style="font-style:normal;font-weight:normal;font-size:10.5833px;line-height:1.25;font-family:sans-serif;letter-spacing:0px;word-spacing:0px;white-space:pre;shape-inside:url(#rect1587-4);fill:#333333;fill-opacity:1;stroke:none"
         id="text1585-0"
         transform="matrix(0.62697646,0,0,0.62697646,-102.60975,7.9777972)"
         aria-label="MilkScript">
        <path
           id="path1998"
           style="font-style:normal;font-variant:normal;font-weight:bold;font-stretch:normal;font-family:Arial;-inkscape-font-specification:'Arial Bold'"
           d="m -41.106163,108.35913 v -7.57575 h 2.289259 l 1.374589,5.16763 1.359085,-5.16763 h 2.294427 v 7.57575 h -1.421098 v -5.96345 l -1.503779,5.96345 h -1.472774 l -1.498612,-5.96345 v 5.96345 z" />
        <path
           id="path2000"
           style="font-style:normal;font-variant:normal;font-weight:bold;font-stretch:normal;font-family:Arial;-inkscape-font-specification:'Arial Bold'"
           d="m -32.269521,102.12697 v -1.34359 h 1.452103 v 1.34359 z m 0,6.23216 v -5.48802 h 1.452103 v 5.48802 z" />
        <path
           id="path2002"
           style="font-style:normal;font-variant:normal;font-weight:bold;font-stretch:normal;font-family:Arial;-inkscape-font-specification:'Arial Bold'"
           d="m -29.334309,108.35913 v -7.57575 h 1.452103 v 7.57575 z" />
        <path
           id="path2004"
           style="font-style:normal;font-variant:normal;font-weight:bold;font-stretch:normal;font-family:Arial;-inkscape-font-specification:'Arial Bold'"
           d="m -26.450774,108.35913 v -7.57575 h 1.452103 v 4.02042 l 1.700149,-1.93269 h 1.787999 l -1.875849,2.00504 2.010207,3.48298 h -1.565791 l -1.379756,-2.46496 -0.676959,0.70796 v 1.757 z" />
        <path
           id="path2006"
           style="font-style:normal;font-variant:normal;font-weight:bold;font-stretch:normal;font-family:Arial;-inkscape-font-specification:'Arial Bold'"
           d="m -20.885239,105.89417 1.488277,-0.1447 q 0.134358,0.74931 0.542601,1.10071 0.41341,0.3514 1.111039,0.3514 0.738971,0 1.11104,-0.31006 0.377237,-0.31523 0.377237,-0.7338 0,-0.26872 -0.160196,-0.45475 -0.155029,-0.19121 -0.547769,-0.33073 -0.268716,-0.093 -1.224727,-0.33073 -1.229896,-0.30489 -1.725988,-0.74931 -0.697629,-0.62528 -0.697629,-1.52445 0,-0.57877 0.32556,-1.08003 0.330728,-0.50643 0.945676,-0.76998 0.620115,-0.26355 1.493444,-0.26355 1.426265,0 2.144565,0.62529 0.723468,0.62528 0.759641,1.66914 l -1.529617,0.0672 q -0.09819,-0.58394 -0.423746,-0.83716 -0.320393,-0.25838 -0.966346,-0.25838 -0.666624,0 -1.043861,0.27389 -0.242878,0.1757 -0.242878,0.47025 0,0.26872 0.227376,0.45992 0.289387,0.24288 1.405594,0.50643 1.116207,0.26355 1.648473,0.54777 0.537433,0.27905 0.837156,0.76997 0.30489,0.48576 0.30489,1.20406 0,0.65112 -0.361734,1.21956 -0.361734,0.56844 -1.02319,0.84749 -0.661457,0.27388 -1.648473,0.27388 -1.436601,0 -2.206577,-0.66145 -0.769976,-0.66663 -0.919838,-1.93786 z" />
        <path
           id="path2008"
           style="font-style:normal;font-variant:normal;font-weight:bold;font-stretch:normal;font-family:Arial;-inkscape-font-specification:'Arial Bold'"
           d="m -8.6534664,104.49374 -1.4314326,0.25838 q -0.07235,-0.42891 -0.330728,-0.64595 -0.253214,-0.21704 -0.661456,-0.21704 -0.542601,0 -0.868162,0.37724 -0.320393,0.37206 -0.320393,1.25056 0,0.97668 0.325561,1.37976 0.330728,0.40307 0.883664,0.40307 0.41341,0 0.676959,-0.23254 0.263549,-0.23771 0.372069,-0.81132 l 1.4262654,0.24288 q -0.222208,0.98185 -0.8526584,1.48311 -0.630451,0.50126 -1.689814,0.50126 -1.204057,0 -1.922357,-0.75964 -0.713133,-0.75964 -0.713133,-2.10323 0,-1.35908 0.7183,-2.11356 0.718301,-0.75964 1.943028,-0.75964 1.00252,0 1.5916292,0.43408 0.5942771,0.42892 0.8526584,1.31258 z" />
        <path
           id="path2010"
           style="font-style:normal;font-variant:normal;font-weight:bold;font-stretch:normal;font-family:Arial;-inkscape-font-specification:'Arial Bold'"
           d="m -6.157503,108.35913 h -1.4521031 v -5.48802 h 1.3487506 v 0.78031 q 0.346231,-0.55294 0.6201152,-0.72864 0.2790518,-0.1757 0.6304505,-0.1757 0.4960921,0 0.9560109,0.27389 l -0.4495835,1.26607 q -0.3669015,-0.23771 -0.6821267,-0.23771 -0.30489,0 -0.5167627,0.17053 -0.2118727,0.16536 -0.3358958,0.60461 -0.1188554,0.43925 -0.1188554,1.83967 z" />
        <path
           id="path2012"
           style="font-style:normal;font-variant:normal;font-weight:bold;font-stretch:normal;font-family:Arial;-inkscape-font-specification:'Arial Bold'"
           d="m -3.4341646,102.12697 v -1.34359 h 1.4521032 v 1.34359 z m 0,6.23216 v -5.48802 h 1.4521032 v 5.48802 z" />
        <path
           id="path2014"
           style="font-style:normal;font-variant:normal;font-weight:bold;font-stretch:normal;font-family:Arial;-inkscape-font-specification:'Arial Bold'"
           d="m -0.54029439,102.87111 h 1.35391821 v 0.80615 q 0.26354898,-0.41341 0.71313248,-0.6718 0.4495835,-0.25838 0.997352,-0.25838 0.9560109,0 1.6226348,0.74931 0.6666238,0.7493 0.6666238,2.08772 0,1.37459 -0.6717914,2.1394 -0.6717915,0.75964 -1.6278025,0.75964 -0.4547511,0 -0.8268203,-0.18087 -0.3669015,-0.18087 -0.77514397,-0.62011 v 2.76468 h -1.45210312 z m 1.43660024,2.65099 q 0,0.925 0.36690155,1.36942 0.3669015,0.43925 0.8939994,0.43925 0.5064274,0 0.8423232,-0.40308 0.3358957,-0.40824 0.3358957,-1.33324 0,-0.863 -0.346231,-1.28158 -0.346231,-0.41857 -0.857826,-0.41857 -0.5322656,0 -0.8836642,0.41341 -0.35139865,0.40824 -0.35139865,1.21439 z" />
        <path
           id="path2016"
           style="font-style:normal;font-variant:normal;font-weight:bold;font-stretch:normal;font-family:Arial;-inkscape-font-specification:'Arial Bold'"
           d="m 8.4875524,102.87111 v 1.15754 H 7.495368 v 2.21175 q 0,0.67179 0.025838,0.78548 0.031006,0.10852 0.1291906,0.18087 0.1033526,0.0723 0.2480461,0.0723 0.2015375,0 0.5839419,-0.13952 l 0.124023,1.12654 q -0.5064274,0.21704 -1.1472131,0.21704 -0.3927397,0 -0.7079649,-0.12919 -0.3152252,-0.13436 -0.4650864,-0.34107 -0.1446936,-0.21187 -0.2015375,-0.56843 -0.046509,-0.25322 -0.046509,-1.02319 v -2.39262 H 5.3714734 v -1.15754 h 0.6666239 v -1.09037 l 1.4572707,-0.84749 v 1.93786 z" />
      </g>
    </g>
  </g>
</svg>
