<?xml version="1.0" encoding="UTF-8" standalone="no"?>
<svg
   xmlns:dc="http://purl.org/dc/elements/1.1/"
   xmlns:cc="http://creativecommons.org/ns#"
   xmlns:rdf="http://www.w3.org/1999/02/22-rdf-syntax-ns#"
   xmlns:svg="http://www.w3.org/2000/svg"
   xmlns="http://www.w3.org/2000/svg"
   xmlns:sodipodi="http://sodipodi.sourceforge.net/DTD/sodipodi-0.dtd"
   xmlns:inkscape="http://www.inkscape.org/namespaces/inkscape"
   inkscape:version="1.0 (4035a4fb49, 2020-05-01)"
   sodipodi:docname="milkscript_sygnet.svg"
   width="10.367311mm"
   height="14.145761mm"
   viewBox="0 0 10.367311 14.145761"
   version="1.1"
   id="svg8">
  <sodipodi:namedview
     inkscape:current-layer="layer1-0"
     inkscape:window-maximized="1"
     inkscape:window-y="-9"
     inkscape:window-x="-9"
     inkscape:cy="14.965882"
     inkscape:cx="19.591768"
     inkscape:zoom="13.747493"
     showgrid="false"
     id="namedview99"
     inkscape:window-height="1271"
     inkscape:window-width="2400"
     inkscape:pageshadow="2"
     inkscape:pageopacity="0"
     guidetolerance="10"
     gridtolerance="10"
     objecttolerance="10"
     borderopacity="1"
     bordercolor="#666666"
     pagecolor="#ffffff" />
  <defs
     id="defs2">
    <rect
       x="-41.855091"
       y="98.825371"
       width="60.85059"
       height="22.123236"
       id="rect1587" />
    <rect
       x="52.827541"
       y="145.5"
       width="35.507042"
       height="25.5"
       id="rect876" />
    <rect
       x="76.210236"
       y="162"
       width="27.712812"
       height="18"
       id="rect902" />
    <rect
       id="rect876-2"
       height="25.5"
       width="35.507042"
       y="145.5"
       x="52.827541" />
    <rect
       id="rect876-5"
       height="25.5"
       width="35.507042"
       y="145.5"
       x="52.827541" />
    <rect
       id="rect972"
       height="25.5"
       width="35.507042"
       y="145.5"
       x="52.827541" />
    <rect
       x="52.827541"
       y="145.5"
       width="35.507042"
       height="25.5"
       id="rect876-2-1" />
    <rect
       x="52.827541"
       y="145.5"
       width="35.507042"
       height="25.5"
       id="rect975" />
    <rect
       id="rect876-2-1-3"
       height="25.5"
       width="35.507042"
       y="145.5"
       x="52.827541" />
    <rect
       id="rect1041"
       height="25.5"
       width="35.507042"
       y="145.5"
       x="52.827541" />
    <rect
       x="52.827541"
       y="145.5"
       width="35.507042"
       height="25.5"
       id="rect876-5-5" />
    <rect
       x="52.827541"
       y="145.5"
       width="35.507042"
       height="25.5"
       id="rect1044" />
    <rect
       id="rect876-3"
       height="25.5"
       width="35.507042"
       y="145.5"
       x="52.827541" />
    <rect
       id="rect1110"
       height="25.5"
       width="35.507042"
       y="145.5"
       x="52.827541" />
    <rect
       x="52.827541"
       y="145.5"
       width="35.507042"
       height="25.5"
       id="rect876-2-3" />
    <rect
       x="52.827541"
       y="145.5"
       width="35.507042"
       height="25.5"
       id="rect1113" />
    <rect
       x="52.827541"
       y="145.5"
       width="35.507042"
       height="25.5"
       id="rect876-5-2" />
    <rect
       x="52.827541"
       y="145.5"
       width="35.507042"
       height="25.5"
       id="rect1116" />
    <rect
       id="rect876-2-1-8"
       height="25.5"
       width="35.507042"
       y="145.5"
       x="52.827541" />
    <rect
       id="rect1119"
       height="25.5"
       width="35.507042"
       y="145.5"
       x="52.827541" />
    <rect
       id="rect876-5-5-6"
       height="25.5"
       width="35.507042"
       y="145.5"
       x="52.827541" />
    <rect
       id="rect1122"
       height="25.5"
       width="35.507042"
       y="145.5"
       x="52.827541" />
    <rect
       x="52.827541"
       y="145.5"
       width="35.507042"
       height="25.5"
       id="rect876-2-1-3-3" />
    <rect
       x="52.827541"
       y="145.5"
       width="35.507042"
       height="25.5"
       id="rect1125" />
    <rect
       id="rect876-2-1-3-3-6"
       height="25.5"
       width="35.507042"
       y="145.5"
       x="52.827541" />
    <rect
       id="rect1293"
       height="25.5"
       width="35.507042"
       y="145.5"
       x="52.827541" />
    <rect
       x="52.827541"
       y="145.5"
       width="35.507042"
       height="25.5"
       id="rect876-5-5-6-2" />
    <rect
       x="52.827541"
       y="145.5"
       width="35.507042"
       height="25.5"
       id="rect1296" />
    <rect
       x="52.827541"
       y="145.5"
       width="35.507042"
       height="25.5"
       id="rect876-2-1-8-8" />
    <rect
       x="52.827541"
       y="145.5"
       width="35.507042"
       height="25.5"
       id="rect1299" />
    <rect
       id="rect876-5-2-8"
       height="25.5"
       width="35.507042"
       y="145.5"
       x="52.827541" />
    <rect
       id="rect1302"
       height="25.5"
       width="35.507042"
       y="145.5"
       x="52.827541" />
    <rect
       id="rect876-2-3-1"
       height="25.5"
       width="35.507042"
       y="145.5"
       x="52.827541" />
    <rect
       id="rect1305"
       height="25.5"
       width="35.507042"
       y="145.5"
       x="52.827541" />
    <rect
       x="52.827541"
       y="145.5"
       width="35.507042"
       height="25.5"
       id="rect876-3-2" />
    <rect
       x="52.827541"
       y="145.5"
       width="35.507042"
       height="25.5"
       id="rect1308" />
    <rect
       id="rect876-2-1-3-3-7"
       height="25.5"
       width="35.507042"
       y="145.5"
       x="52.827541" />
    <rect
       id="rect1293-9"
       height="25.5"
       width="35.507042"
       y="145.5"
       x="52.827541" />
    <rect
       x="52.827541"
       y="145.5"
       width="35.507042"
       height="25.5"
       id="rect876-5-5-6-1" />
    <rect
       x="52.827541"
       y="145.5"
       width="35.507042"
       height="25.5"
       id="rect1296-6" />
    <rect
       x="52.827541"
       y="145.5"
       width="35.507042"
       height="25.5"
       id="rect876-2-1-8-1" />
    <rect
       x="52.827541"
       y="145.5"
       width="35.507042"
       height="25.5"
       id="rect1299-9" />
    <rect
       id="rect876-5-2-1"
       height="25.5"
       width="35.507042"
       y="145.5"
       x="52.827541" />
    <rect
       id="rect1302-7"
       height="25.5"
       width="35.507042"
       y="145.5"
       x="52.827541" />
    <rect
       id="rect876-2-3-8"
       height="25.5"
       width="35.507042"
       y="145.5"
       x="52.827541" />
    <rect
       id="rect1305-0"
       height="25.5"
       width="35.507042"
       y="145.5"
       x="52.827541" />
    <rect
       x="52.827541"
       y="145.5"
       width="35.507042"
       height="25.5"
       id="rect876-3-4" />
    <rect
       x="52.827541"
       y="145.5"
       width="35.507042"
       height="25.5"
       id="rect1308-0" />
    <rect
       id="rect876-5-5-6-1-4"
       height="25.5"
       width="35.507042"
       y="145.5"
       x="52.827541" />
    <rect
       id="rect1600"
       height="25.5"
       width="35.507042"
       y="145.5"
       x="52.827541" />
    <rect
       x="52.827541"
       y="145.5"
       width="35.507042"
       height="25.5"
       id="rect876-2-1-3-3-7-1" />
    <rect
       x="52.827541"
       y="145.5"
       width="35.507042"
       height="25.5"
       id="rect1603" />
    <rect
       id="rect1587-4"
       height="22.123236"
       width="60.85059"
       y="98.825371"
       x="-41.855091" />
    <rect
       id="rect1606"
       height="22.123236"
       width="60.85059"
       y="98.825371"
       x="-41.855091" />
    <rect
       id="rect876-5-5-6-1-8"
       height="25.5"
       width="35.507042"
       y="145.5"
       x="52.827541" />
    <rect
       id="rect1686"
       height="25.5"
       width="35.507042"
       y="145.5"
       x="52.827541" />
    <rect
       x="52.827541"
       y="145.5"
       width="35.507042"
       height="25.5"
       id="rect876-2-1-3-3-7-4" />
    <rect
       x="52.827541"
       y="145.5"
       width="35.507042"
       height="25.5"
       id="rect1689" />
    <rect
       id="rect1587-1"
       height="22.123236"
       width="60.85059"
       y="98.825371"
       x="-41.855091" />
    <rect
       id="rect1692"
       height="22.123236"
       width="60.85059"
       y="98.825371"
       x="-41.855091" />
    <rect
       x="52.827541"
       y="145.5"
       width="35.507042"
       height="25.5"
       id="rect876-5-5-6-1-4-6" />
    <rect
       x="52.827541"
       y="145.5"
       width="35.507042"
       height="25.5"
       id="rect1695" />
    <rect
       id="rect876-2-1-3-3-7-1-6"
       height="25.5"
       width="35.507042"
       y="145.5"
       x="52.827541" />
    <rect
       id="rect1698"
       height="25.5"
       width="35.507042"
       y="145.5"
       x="52.827541" />
    <rect
       x="-41.855091"
       y="98.825371"
       width="60.85059"
       height="22.123236"
       id="rect1587-4-5" />
    <rect
       x="-41.855091"
       y="98.825371"
       width="60.85059"
       height="22.123236"
       id="rect1701" />
    <rect
       id="rect876-5-5-6-1-9"
       height="25.5"
       width="35.507042"
       y="145.5"
       x="52.827541" />
    <rect
       id="rect1847"
       height="25.5"
       width="35.507042"
       y="145.5"
       x="52.827541" />
    <rect
       x="52.827541"
       y="145.5"
       width="35.507042"
       height="25.5"
       id="rect876-2-1-3-3-7-10" />
    <rect
       x="52.827541"
       y="145.5"
       width="35.507042"
       height="25.5"
       id="rect1850" />
    <rect
       x="-41.855091"
       y="98.825371"
       width="60.85059"
       height="22.123236"
       id="rect1587-4-59" />
    <rect
       x="-41.855091"
       y="98.825371"
       width="60.85059"
       height="22.123236"
       id="rect1916" />
    <rect
       x="-41.855091"
       y="98.825371"
       width="60.85059"
       height="22.123236"
       id="rect1587-4-9" />
    <rect
       x="-41.855091"
       y="98.825371"
       width="60.85059"
       height="22.123236"
       id="rect1978" />
  </defs>
  <metadata
     id="metadata5">
    <rdf:RDF>
      <cc:Work
         rdf:about="">
        <dc:format>image/svg+xml</dc:format>
        <dc:type
           rdf:resource="http://purl.org/dc/dcmitype/StillImage" />
        <dc:title />
      </cc:Work>
    </rdf:RDF>
  </metadata>
  <g
     id="layer1"
     transform="translate(398.57393,71.383234)">
    <g
       transform="translate(-280.59223,-126)"
       id="layer1-0">
      <path
         id="path961-9-2-4-5-3"
         d="m -117.05914,65.379843 4.2611,2.460144 4.2611,-2.460144 v -4.9203 l -2.13055,-1.230067 v -1.230078 l -4.2611,-2.460144 v 1.230067 l -2.13055,3.690222 z"
         style="fill:#ffffff;fill-opacity:1;stroke:#ffffff;stroke-width:1.84511;stroke-linecap:round;stroke-linejoin:round;stroke-miterlimit:4;stroke-dasharray:none;stroke-opacity:1" />
      <path
         id="path921-4-0-0-8-2"
         d="m -117.05914,65.379843 4.2611,2.460144 4.2611,-2.460144 v -4.9203 l -2.13055,-1.230067 v -1.230078 l -4.2611,-2.460144 v 1.230067 l -2.13055,3.690222 z"
         style="fill:#ffffff;fill-opacity:1;stroke:none;stroke-width:0.325456px;stroke-linecap:butt;stroke-linejoin:miter;stroke-opacity:1" />
      <path
         id="path919-9-4-2-2-7"
         style="color:#000000;font-style:normal;font-variant:normal;font-weight:normal;font-stretch:normal;font-size:medium;line-height:normal;font-family:sans-serif;font-variant-ligatures:normal;font-variant-position:normal;font-variant-caps:normal;font-variant-numeric:normal;font-variant-alternates:normal;font-variant-east-asian:normal;font-feature-settings:normal;font-variation-settings:normal;text-indent:0;text-align:start;text-decoration:none;text-decoration-line:none;text-decoration-style:solid;text-decoration-color:#000000;letter-spacing:normal;word-spacing:normal;text-transform:none;writing-mode:lr-tb;direction:ltr;text-orientation:mixed;dominant-baseline:auto;baseline-shift:baseline;text-anchor:start;white-space:normal;shape-padding:0;shape-margin:0;inline-size:0;clip-rule:nonzero;display:inline;overflow:visible;visibility:visible;opacity:1;isolation:auto;mix-blend-mode:normal;color-interpolation:sRGB;color-interpolation-filters:linearRGB;solid-color:#000000;solid-opacity:1;vector-effect:none;fill:#333333;fill-opacity:1;fill-rule:nonzero;stroke:none;stroke-width:0.738046;stroke-linecap:round;stroke-linejoin:round;stroke-miterlimit:4;stroke-dasharray:none;stroke-dashoffset:0;stroke-opacity:1;paint-order:normal;color-rendering:auto;image-rendering:auto;shape-rendering:auto;text-rendering:auto;enable-background:accumulate;stop-color:#000000;stop-opacity:1"
         d="m -114.92049,55.17076 a 0.36905963,0.36905963 0 0 0 -0.0221,5.26e-4 0.36905963,0.36905963 0 0 0 -0.35388,0.368102 v 1.126955 l -2.08225,3.607834 v 5.26e-4 a 0.36905904,0.36905904 0 0 0 -0.049,0.184842 v 4.920157 a 0.36905904,0.36905904 0 0 0 0.18483,0.319653 c 0,0 2.78802,1.610608 4.2598,2.460341 a 0.36905904,0.36905904 0 0 0 0.3702,0 l 4.25926,-2.460341 a 0.36905904,0.36905904 0 0 0 0.18537,-0.319653 v -4.920157 a 0.36905904,0.36905904 0 0 0 -0.18432,-0.318601 l -0.0105,-0.0063 a 0.36905904,0.36905904 0 0 0 -0.003,-0.0011 l -1.93319,-1.119058 v -1.01531 a 0.36905963,0.36905963 0 0 0 -0.18327,-0.320182 l -4.26136,-2.460341 a 0.36905963,0.36905963 0 0 0 -0.17696,-0.04792 z m 0.36022,1.007411 3.52305,2.034313 v 0.376002 l -3.52305,-2.033784 z m -0.23277,1.094832 3.62047,2.092239 -1.76099,3.0512 -3.62154,-2.09171 z m 4.25927,2.461921 1.25807,0.725147 -2.51459,1.452402 z m -6.15614,1.36393 3.52304,2.034312 v 4.06862 c -1.4185,-0.819238 -3.32969,-1.924251 -3.52304,-2.03589 z m 7.7839,0 v 4.067042 l -3.52254,2.034836 v -4.068094 z" />
      <g
         aria-label="M"
         transform="matrix(0.39947305,0.23063586,0,0.39947305,-137.84285,-9.6620897)"
         id="text874-2-3-9-3-1"
         style="font-style:normal;font-weight:normal;font-size:10.5833px;line-height:1.25;font-family:sans-serif;letter-spacing:0px;word-spacing:0px;white-space:pre;shape-inside:url(#rect876-5-5-6-1-4);fill:#333333;fill-opacity:1;stroke:none">
        <path
           d="m 61.040766,150.34715 v -0.0317 c 0,-0.5715 -0.01058,-1.016 -0.01058,-1.15358 0,-0.52916 -0.03175,-0.93133 -0.444498,-1.26999 -0.148167,-0.11642 -0.328083,-0.17992 -0.529165,-0.17992 -0.264583,0 -0.560915,0.10583 -0.783165,0.28575 -0.296332,0.23283 -1.534578,2.24366 -1.915577,2.86807 -0.253999,-0.39158 -1.111246,-1.69333 -1.587495,-2.25424 -0.380998,-0.4445 -0.719664,-0.80433 -1.142996,-0.80433 -0.07408,0 -0.15875,0.0106 -0.243416,0.0317 -0.465665,0.15875 -0.687914,0.55033 -0.687914,1.21708 0,0.127 -0.01058,0.45508 -0.01058,0.92075 v 0.0423 c -0.02117,1.47108 -0.0635,4.22274 -0.01058,4.72015 0.08467,0.74083 0.560915,0.84666 0.836081,0.84666 0.02117,0 0.04233,0 0.05292,0 0.476249,-0.0212 0.846664,-0.40216 0.867831,-0.87841 0.01058,-0.30692 0.01058,-2.70932 0.01058,-3.49249 0.285749,0.35983 0.836081,1.03717 1.18533,1.41816 0.243415,0.254 0.507998,0.39159 0.783164,0.39159 0.264582,0 0.507998,-0.11642 0.719664,-0.33867 0.169333,-0.16933 0.793748,-1.11125 1.12183,-1.59808 l 0.02117,0.79375 c 0.04233,1.06891 0.09525,2.58232 0.105833,2.87866 0.02117,0.53975 0.486832,0.81491 0.899581,0.79374 0.433915,-0.0212 0.751414,-0.33866 0.783164,-0.79374 0.02117,-0.30692 0,-2.87866 -0.02117,-4.41324 z"
           style="font-style:normal;font-variant:normal;font-weight:normal;font-stretch:normal;font-family:mini-wakuwaku;-inkscape-font-specification:mini-wakuwaku;fill:#333333;fill-opacity:1"
           id="path1936" />
      </g>
      <g
         aria-label="S"
         transform="matrix(0.39947305,-0.23063587,0,0.39947305,-133.05334,16.516619)"
         id="text874-4-7-7-3-7-7"
         style="font-style:normal;font-weight:normal;font-size:10.5833px;line-height:1.25;font-family:sans-serif;letter-spacing:0px;word-spacing:0px;white-space:pre;shape-inside:url(#rect876-2-1-3-3-7-1);opacity:1;fill:#333333;fill-opacity:1;stroke:#333333;stroke-width:0.153962;stroke-miterlimit:4;stroke-dasharray:none;stroke-opacity:1">
        <path
           d="m 58.64894,148.89724 c -0.116416,-0.43392 -0.666748,-1.03716 -1.809744,-1.34408 -0.22225,-0.0529 -0.465666,-0.0847 -0.719665,-0.0847 -0.846664,0 -1.883827,0.37042 -2.264826,1.41817 -0.253999,0.69849 -0.296332,1.71449 0.359832,2.4659 0.359832,0.40217 0.899581,0.73025 1.375829,1.016 0.338666,0.20108 0.624415,0.37042 0.772581,0.52917 0.127,0.13758 0.190499,0.30691 0.15875,0.47624 -0.02117,0.16934 -0.127,0.32809 -0.275166,0.41275 -0.08467,0.0423 -0.232833,0.0741 -0.412749,0.0741 -0.359832,0 -0.783164,-0.0952 -1.09008,-0.22225 -0.169333,-0.0847 -0.338665,-0.11642 -0.497415,-0.11642 -0.285749,0 -0.539748,0.13758 -0.740831,0.40217 -0.243416,0.33866 -0.179916,0.79374 0.15875,1.16416 0.201082,0.22225 0.984247,0.52916 1.439328,0.5715 0.1905,0.0106 0.370416,0.0212 0.550332,0.0212 0.772581,0 1.396996,-0.15875 1.841494,-0.46566 0.814914,-0.5715 1.111247,-1.7145 0.666748,-2.61408 -0.317499,-0.63499 -1.05833,-1.24883 -1.661578,-1.56632 -0.486832,-0.254 -0.984247,-0.5715 -1.02658,-0.99483 -0.04233,-0.33867 0.190499,-0.64559 0.518582,-0.71967 0.05292,-0.0106 0.116416,-0.0212 0.179916,-0.0212 0.338665,0 0.793747,0.127 1.02658,0.27517 0.243416,0.14817 0.444498,0.22225 0.656164,0.22225 0.105833,0 0.201083,-0.0212 0.317499,-0.0423 0.169333,-0.0423 0.306916,-0.14817 0.402166,-0.30692 0.105833,-0.16933 0.126999,-0.35983 0.07408,-0.55033 z"
           style="font-style:normal;font-variant:normal;font-weight:normal;font-stretch:normal;font-family:mini-wakuwaku;-inkscape-font-specification:mini-wakuwaku;fill:#333333;fill-opacity:1;stroke:#333333;stroke-width:0.153962;stroke-miterlimit:4;stroke-dasharray:none;stroke-opacity:1"
           id="path1939" />
      </g>
    </g>
  </g>
</svg>
